<svg width="21" height="20" viewBox="0 0 21 20" fill="none" xmlns="http://www.w3.org/2000/svg">
<path d="M10.6082 1.875C8.45327 1.875 6.38664 2.73103 4.86291 4.25476C3.33918 5.77849 2.48315 7.84512 2.48315 10C2.48315 10.2486 2.38438 10.4871 2.20857 10.6629C2.03275 10.8387 1.79429 10.9375 1.54565 10.9375C1.29701 10.9375 1.05856 10.8387 0.882742 10.6629C0.706926 10.4871 0.608154 10.2486 0.608154 10C0.608154 8.02219 1.19464 6.08879 2.29346 4.4443C3.39227 2.79981 4.95406 1.51809 6.78132 0.761209C8.60858 0.00433281 10.6192 -0.1937 12.5591 0.192152C14.4989 0.578004 16.2807 1.53041 17.6792 2.92894C19.0777 4.32746 20.0302 6.10929 20.416 8.0491C20.8019 9.98891 20.6038 11.9996 19.8469 13.8268C19.0901 15.6541 17.8083 17.2159 16.1639 18.3147C14.5194 19.4135 12.586 20 10.6082 20C10.3595 20 10.1211 19.9012 9.94524 19.7254C9.76943 19.5496 9.67065 19.3111 9.67065 19.0625C9.67065 18.8139 9.76943 18.5754 9.94524 18.3996C10.1211 18.2238 10.3595 18.125 10.6082 18.125C12.763 18.125 14.8297 17.269 16.3534 15.7452C17.8771 14.2215 18.7332 12.1549 18.7332 10C18.7332 7.84512 17.8771 5.77849 16.3534 4.25476C14.8297 2.73103 12.763 1.875 10.6082 1.875Z" fill="white"/>
</svg>
