<svg width="30" height="31" viewBox="0 0 30 31" fill="none" xmlns="http://www.w3.org/2000/svg">
<path d="M15 0C6.72 0 0 6.944 0 15.5C0 24.056 6.72 31 15 31C23.28 31 30 24.056 30 15.5C30 6.944 23.28 0 15 0ZM21.96 10.54C21.735 12.989 20.76 18.941 20.265 21.6845C20.055 22.847 19.635 23.2345 19.245 23.281C18.375 23.3585 17.715 22.692 16.875 22.1185C15.555 21.2195 14.805 20.6615 13.53 19.7935C12.045 18.786 13.005 18.228 13.86 17.329C14.085 17.0965 17.925 13.485 18 13.1595C18.0104 13.1102 18.009 13.059 17.996 13.0104C17.9829 12.9618 17.9585 12.9172 17.925 12.8805C17.835 12.803 17.715 12.834 17.61 12.8495C17.475 12.8805 15.375 14.322 11.28 17.174C10.68 17.5925 10.14 17.8095 9.66 17.794C9.12 17.7785 8.1 17.484 7.335 17.2205C6.39 16.9105 5.655 16.74 5.715 16.1975C5.745 15.9185 6.12 15.6395 6.825 15.345C11.205 13.3765 14.115 12.0745 15.57 11.4545C19.74 9.6565 20.595 9.3465 21.165 9.3465C21.285 9.3465 21.57 9.3775 21.75 9.5325C21.9 9.6565 21.945 9.827 21.96 9.951C21.945 10.044 21.975 10.323 21.96 10.54Z" fill="#FFAE81"/>
</svg>
