<svg width="31" height="31" viewBox="0 0 31 31" fill="none" xmlns="http://www.w3.org/2000/svg">
<path d="M15.5 0C24.0607 0 31 6.93935 31 15.5C31 24.0606 24.0607 31 15.5 31C12.7608 31.0044 10.0698 30.2795 7.70352 28.8997L0.0062218 31L2.10182 23.2996C0.720916 20.9325 -0.00455448 18.2404 2.15144e-05 15.5C2.15144e-05 6.93935 6.93937 0 15.5 0ZM10.2176 8.21499L9.90761 8.22739C9.70692 8.23962 9.51078 8.29234 9.33102 8.38239C9.16287 8.47761 9.00939 8.59664 8.87532 8.73579C8.68932 8.91094 8.58392 9.06284 8.47077 9.21009C7.89746 9.95549 7.58877 10.8706 7.59347 11.811C7.59657 12.5705 7.79497 13.3098 8.10497 14.0011C8.73892 15.3992 9.78206 16.8795 11.1585 18.2512C11.4902 18.5814 11.8157 18.9131 12.166 19.2215C13.8762 20.7273 15.9143 21.8132 18.118 22.3928L18.9984 22.5277C19.2851 22.5432 19.5719 22.5215 19.8602 22.5075C20.3116 22.4842 20.7524 22.362 21.1513 22.1495C21.3543 22.0449 21.5524 21.9311 21.745 21.8085C21.745 21.8085 21.8116 21.7651 21.9387 21.669C22.148 21.514 22.2766 21.4039 22.4502 21.2226C22.5789 21.0893 22.6905 20.9327 22.7757 20.7545C22.8966 20.5018 23.0175 20.0198 23.0671 19.6183C23.1043 19.3114 23.0935 19.144 23.0888 19.0402C23.0826 18.8743 22.9447 18.7023 22.7943 18.6294L21.8922 18.2249C21.8922 18.2249 20.5437 17.6374 19.7191 17.2623C19.6328 17.2247 19.5404 17.2031 19.4463 17.1988C19.3403 17.1879 19.2331 17.1998 19.132 17.2338C19.031 17.2677 18.9384 17.3229 18.8604 17.3956C18.8527 17.3925 18.7488 17.4809 17.6282 18.8387C17.5638 18.9251 17.4752 18.9904 17.3737 19.0263C17.2721 19.0622 17.1621 19.067 17.0578 19.0402C16.9568 19.0131 16.8579 18.9789 16.7617 18.9379C16.5695 18.8573 16.5029 18.8263 16.3711 18.7705C15.4815 18.3823 14.6579 17.8578 13.9299 17.2158C13.7346 17.0453 13.5532 16.8593 13.3672 16.6795C12.7574 16.0955 12.226 15.4349 11.7862 14.7141L11.6948 14.5669C11.6291 14.4679 11.576 14.3612 11.5367 14.2491C11.4778 14.0213 11.6312 13.8384 11.6312 13.8384C11.6312 13.8384 12.0079 13.4261 12.183 13.2029C12.3535 12.9859 12.4977 12.7751 12.5907 12.6247C12.7736 12.3302 12.8309 12.028 12.7348 11.7939C12.3008 10.7337 11.8513 9.67819 11.3894 8.63039C11.298 8.42269 11.0267 8.27389 10.7803 8.24444C10.6966 8.23514 10.6129 8.22584 10.5292 8.21964C10.321 8.2093 10.1124 8.21137 9.90451 8.22584L10.2161 8.21344L10.2176 8.21499Z" fill="#FFAE81"/>
</svg>
