<svg width="1000" height="799" viewBox="0 0 1000 799" fill="none" xmlns="http://www.w3.org/2000/svg">
<path d="M782.457 784.187L24.6786 346.684C11.0487 338.814 6.37897 321.387 14.2482 307.757L177.683 24.6786C185.553 11.0488 202.98 6.379 216.61 14.2482L974.389 451.752C988.019 459.621 992.688 477.049 984.819 490.679L821.384 773.757C813.515 787.387 796.087 792.056 782.457 784.187Z" stroke="#77A48E" stroke-width="2" stroke-miterlimit="10"/>
<path d="M292.186 131.434L257.345 111.319C254.139 109.467 253.04 105.366 254.891 102.16L275.006 67.3192C276.858 64.1124 280.959 63.0135 284.166 64.865L319.006 84.9801C322.213 86.8315 323.312 90.9326 321.46 94.1393L301.345 128.98C299.494 132.186 295.393 133.285 292.186 131.434Z" stroke="#77A48E" stroke-width="2" stroke-miterlimit="10"/>
<path d="M238.474 100.423L174.6 63.5451C171.393 61.6937 170.294 57.5927 172.145 54.3859L185.555 31.159C191.11 21.5387 203.413 18.242 213.033 23.7963L265.294 53.969C268.501 55.8204 269.599 59.9215 267.748 63.1282L247.633 97.9686C245.781 101.175 241.68 102.274 238.474 100.423Z" stroke="#77A48E" stroke-width="2" stroke-miterlimit="10"/>
<path d="M347.35 163.283L312.51 143.168C309.303 141.316 308.204 137.215 310.055 134.008L330.17 99.1681C332.022 95.9613 336.123 94.8624 339.33 96.7138L374.17 116.829C377.377 118.68 378.476 122.781 376.624 125.988L356.509 160.829C354.658 164.035 350.557 165.134 347.35 163.283Z" stroke="#77A48E" stroke-width="2" stroke-miterlimit="10"/>
<path d="M402.514 195.132L367.673 175.017C364.467 173.165 363.368 169.064 365.219 165.857L385.334 131.017C387.186 127.81 391.287 126.711 394.494 128.563L429.334 148.678C432.541 150.529 433.64 154.63 431.788 157.837L411.673 192.677C409.822 195.884 405.721 196.983 402.514 195.132Z" stroke="#77A48E" stroke-width="2" stroke-miterlimit="10"/>
<path d="M457.678 226.981L422.837 206.865C419.631 205.014 418.532 200.913 420.383 197.706L440.498 162.866C442.35 159.659 446.451 158.56 449.657 160.412L484.498 180.527C487.705 182.378 488.803 186.479 486.952 189.686L466.837 224.526C464.986 227.733 460.884 228.832 457.678 226.981Z" stroke="#77A48E" stroke-width="2" stroke-miterlimit="10"/>
<path d="M512.842 258.83L478.001 238.715C474.794 236.863 473.696 232.762 475.547 229.555L495.662 194.715C497.514 191.508 501.615 190.409 504.821 192.261L539.662 212.376C542.869 214.227 543.967 218.328 542.116 221.535L522.001 256.375C520.149 259.582 516.05 260.682 512.842 258.83Z" stroke="#77A48E" stroke-width="2" stroke-miterlimit="10"/>
<path d="M568.006 290.679L533.165 270.563C529.959 268.712 528.86 264.611 530.711 261.404L550.826 226.564C552.678 223.357 556.779 222.258 559.985 224.11L594.826 244.225C598.033 246.076 599.131 250.177 597.28 253.384L577.165 288.224C575.313 291.431 571.212 292.53 568.006 290.679Z" stroke="#77A48E" stroke-width="2" stroke-miterlimit="10"/>
<path d="M623.17 322.527L588.329 302.412C585.122 300.561 584.024 296.46 585.875 293.253L605.99 258.412C607.841 255.206 611.943 254.107 615.149 255.958L649.99 276.073C653.196 277.925 654.295 282.026 652.444 285.233L632.329 320.073C630.477 323.28 626.376 324.379 623.17 322.527Z" stroke="#77A48E" stroke-width="2" stroke-miterlimit="10"/>
<path d="M678.334 354.376L643.493 334.261C640.286 332.41 639.187 328.308 641.039 325.102L661.154 290.261C663.005 287.055 667.106 285.956 670.313 287.807L705.154 307.922C708.36 309.774 709.459 313.875 707.608 317.081L687.493 351.922C685.641 355.129 681.54 356.227 678.334 354.376Z" stroke="#77A48E" stroke-width="2" stroke-miterlimit="10"/>
<path d="M733.497 386.225L698.657 366.11C695.45 364.258 694.351 360.157 696.203 356.951L716.318 322.11C718.169 318.903 722.27 317.805 725.477 319.656L760.318 339.771C763.524 341.623 764.623 345.724 762.772 348.93L742.657 383.771C740.805 386.977 736.704 388.076 733.497 386.225Z" stroke="#77A48E" stroke-width="2" stroke-miterlimit="10"/>
<path d="M788.661 418.074L753.821 397.959C750.614 396.108 749.515 392.006 751.367 388.8L771.482 353.959C773.333 350.753 777.434 349.654 780.641 351.505L815.481 371.62C818.688 373.472 819.787 377.573 817.936 380.779L797.821 415.62C795.969 418.827 791.868 419.925 788.661 418.074Z" stroke="#77A48E" stroke-width="2" stroke-miterlimit="10"/>
<path d="M843.825 449.923L808.985 429.808C805.778 427.956 804.679 423.855 806.531 420.649L826.646 385.808C828.497 382.601 832.598 381.503 835.805 383.354L870.645 403.469C873.852 405.321 874.951 409.422 873.1 412.628L852.985 447.469C851.133 450.675 847.032 451.774 843.825 449.923Z" stroke="#77A48E" stroke-width="2" stroke-miterlimit="10"/>
<path d="M898.989 481.772L864.149 461.657C860.942 459.805 859.843 455.704 861.695 452.497L881.81 417.657C883.661 414.45 887.762 413.351 890.969 415.203L925.809 435.318C929.016 437.169 930.115 441.27 928.264 444.477L908.149 479.318C906.297 482.524 902.196 483.623 898.989 481.772Z" stroke="#77A48E" stroke-width="2" stroke-miterlimit="10"/>
<path d="M233.593 169.222L198.753 149.106C195.546 147.255 194.447 143.154 196.298 139.947L216.414 105.107C218.265 101.9 222.366 100.801 225.573 102.653L260.413 122.768C263.62 124.619 264.719 128.72 262.867 131.927L242.752 166.767C240.901 169.974 236.8 171.073 233.593 169.222Z" stroke="#77A48E" stroke-width="2" stroke-miterlimit="10"/>
<path d="M178.429 137.373L143.589 117.258C140.382 115.406 139.283 111.305 141.135 108.098L161.25 73.2579C163.101 70.0511 167.202 68.9523 170.409 70.8037L205.249 90.9188C208.456 92.7702 209.555 96.8713 207.704 100.078L187.588 134.918C185.737 138.125 181.636 139.224 178.429 137.373Z" stroke="#77A48E" stroke-width="2" stroke-miterlimit="10"/>
<path d="M288.757 201.07L253.917 180.955C250.71 179.104 249.611 175.003 251.462 171.796L271.577 136.956C273.429 133.749 277.53 132.65 280.737 134.501L315.577 154.617C318.784 156.468 319.883 160.569 318.031 163.776L297.916 198.616C296.065 201.823 291.964 202.922 288.757 201.07Z" stroke="#77A48E" stroke-width="2" stroke-miterlimit="10"/>
<path d="M343.921 232.919L309.081 212.804C305.874 210.953 304.775 206.852 306.626 203.645L326.742 168.805C328.593 165.598 332.694 164.499 335.901 166.35L370.741 186.465C373.948 188.317 375.047 192.418 373.195 195.625L353.08 230.465C351.229 233.672 347.128 234.771 343.921 232.919Z" stroke="#77A48E" stroke-width="2" stroke-miterlimit="10"/>
<path d="M399.085 264.768L364.245 244.653C361.038 242.802 359.939 238.701 361.79 235.494L381.905 200.653C383.757 197.447 387.858 196.348 391.065 198.199L425.905 218.314C429.112 220.166 430.211 224.267 428.359 227.474L408.244 262.314C406.393 265.521 402.292 266.62 399.085 264.768Z" stroke="#77A48E" stroke-width="2" stroke-miterlimit="10"/>
<path d="M454.249 296.617L419.408 276.502C416.202 274.651 415.103 270.55 416.954 267.343L437.069 232.503C438.921 229.296 443.022 228.197 446.229 230.048L481.069 250.163C484.276 252.015 485.375 256.116 483.523 259.323L463.408 294.163C461.557 297.37 457.457 298.47 454.249 296.617Z" stroke="#77A48E" stroke-width="2" stroke-miterlimit="10"/>
<path d="M509.413 328.466L474.572 308.351C471.366 306.5 470.267 302.399 472.118 299.192L492.233 264.351C494.085 261.145 498.186 260.046 501.393 261.897L536.233 282.012C539.44 283.864 540.539 287.965 538.687 291.172L518.572 326.012C516.721 329.219 512.62 330.318 509.413 328.466Z" stroke="#77A48E" stroke-width="2" stroke-miterlimit="10"/>
<path d="M564.577 360.315L529.737 340.2C526.53 338.348 525.431 334.247 527.282 331.041L547.397 296.2C549.249 292.994 553.35 291.895 556.557 293.746L591.397 313.861C594.604 315.713 595.703 319.814 593.851 323.02L573.736 357.861C571.885 361.068 567.784 362.166 564.577 360.315Z" stroke="#77A48E" stroke-width="2" stroke-miterlimit="10"/>
<path d="M619.741 392.164L584.9 372.049C581.694 370.197 580.595 366.096 582.446 362.89L602.561 328.049C604.413 324.842 608.514 323.744 611.721 325.595L646.561 345.71C649.768 347.561 650.867 351.663 649.015 354.869L628.9 389.71C627.049 392.916 622.948 394.015 619.741 392.164Z" stroke="#77A48E" stroke-width="2" stroke-miterlimit="10"/>
<path d="M674.905 424.013L640.064 403.898C636.858 402.046 635.759 397.945 637.61 394.739L657.725 359.898C659.577 356.692 663.678 355.593 666.884 357.444L701.725 377.559C704.932 379.411 706.031 383.512 704.179 386.718L684.064 421.559C682.213 424.766 678.112 425.864 674.905 424.013Z" stroke="#77A48E" stroke-width="2" stroke-miterlimit="10"/>
<path d="M730.069 455.862L695.228 435.747C692.021 433.895 690.922 429.794 692.774 426.588L712.889 391.747C714.74 388.54 718.842 387.442 722.048 389.293L756.889 409.408C760.095 411.259 761.194 415.361 759.343 418.567L739.228 453.408C737.376 456.614 733.275 457.713 730.069 455.862Z" stroke="#77A48E" stroke-width="2" stroke-miterlimit="10"/>
<path d="M785.232 487.711L750.392 467.596C747.185 465.744 746.086 461.643 747.938 458.436L768.053 423.596C769.904 420.389 774.005 419.29 777.212 421.142L812.053 441.257C815.259 443.108 816.358 447.209 814.507 450.416L794.392 485.257C792.54 488.463 788.439 489.562 785.232 487.711Z" stroke="#77A48E" stroke-width="2" stroke-miterlimit="10"/>
<path d="M840.396 519.56L805.556 499.445C802.349 497.593 801.25 493.492 803.102 490.286L823.217 455.445C825.068 452.238 829.169 451.14 832.376 452.991L867.217 473.106C870.423 474.957 871.522 479.059 869.671 482.265L849.556 517.106C847.704 520.312 843.603 521.411 840.396 519.56Z" stroke="#77A48E" stroke-width="2" stroke-miterlimit="10"/>
<path d="M923.142 567.333L859.268 530.455C856.062 528.604 854.963 524.503 856.814 521.296L876.929 486.456C878.781 483.249 882.882 482.15 886.089 484.001L949.963 520.879C953.169 522.731 954.268 526.832 952.417 530.038L932.302 564.879C930.45 568.086 926.349 569.184 923.142 567.333Z" stroke="#77A48E" stroke-width="2" stroke-miterlimit="10"/>
<path d="M802.127 569.081L836.968 589.196C840.174 591.048 844.276 589.949 846.127 586.742L866.242 551.902C868.093 548.695 866.995 544.594 863.788 542.743L828.947 522.627C825.741 520.776 821.64 521.875 819.788 525.082L799.673 559.922C797.822 563.129 798.921 567.23 802.127 569.081Z" stroke="#77A48E" stroke-width="2" stroke-miterlimit="10"/>
<path d="M857.291 600.93L892.132 621.045C895.338 622.897 899.439 621.798 901.291 618.591L921.406 583.751C923.257 580.544 922.159 576.443 918.952 574.591L884.111 554.476C880.905 552.625 876.804 553.724 874.952 556.931L854.837 591.771C852.986 594.978 854.085 599.079 857.291 600.93Z" stroke="#77A48E" stroke-width="2" stroke-miterlimit="10"/>
<path d="M746.963 537.232L781.804 557.347C785.01 559.199 789.112 558.1 790.963 554.893L811.078 520.053C812.929 516.846 811.831 512.745 808.624 510.894L773.783 490.779C770.577 488.927 766.476 490.026 764.624 493.233L744.509 528.073C742.658 531.28 743.757 535.381 746.963 537.232Z" stroke="#77A48E" stroke-width="2" stroke-miterlimit="10"/>
<path d="M691.799 505.384L726.64 525.499C729.847 527.35 733.948 526.251 735.799 523.044L755.914 488.204C757.766 484.997 756.667 480.896 753.46 479.045L718.62 458.93C715.413 457.078 711.312 458.177 709.46 461.384L689.345 496.224C687.494 499.431 688.593 503.532 691.799 505.384Z" stroke="#77A48E" stroke-width="2" stroke-miterlimit="10"/>
<path d="M636.635 473.535L671.476 493.65C674.683 495.501 678.784 494.402 680.635 491.196L700.75 456.355C702.602 453.148 701.503 449.047 698.296 447.196L663.456 427.081C660.249 425.229 656.148 426.328 654.296 429.535L634.181 464.375C632.33 467.582 633.429 471.683 636.635 473.535Z" stroke="#77A48E" stroke-width="2" stroke-miterlimit="10"/>
<path d="M581.471 441.686L616.312 461.801C619.519 463.652 623.62 462.553 625.471 459.346L645.586 424.506C647.438 421.299 646.339 417.198 643.132 415.347L608.292 395.232C605.085 393.38 600.984 394.479 599.132 397.686L579.017 432.526C577.166 435.733 578.263 439.833 581.471 441.686Z" stroke="#77A48E" stroke-width="2" stroke-miterlimit="10"/>
<path d="M526.308 409.837L561.148 429.952C564.355 431.803 568.456 430.704 570.307 427.498L590.422 392.657C592.274 389.45 591.175 385.349 587.968 383.498L553.128 363.383C549.921 361.531 545.82 362.63 543.968 365.837L523.853 400.677C522.002 403.884 523.101 407.985 526.308 409.837Z" stroke="#77A48E" stroke-width="2" stroke-miterlimit="10"/>
<path d="M471.144 377.988L505.984 398.103C509.191 399.955 513.292 398.856 515.143 395.649L535.258 360.809C537.11 357.602 536.011 353.501 532.804 351.649L497.964 331.534C494.757 329.683 490.656 330.782 488.804 333.988L468.689 368.829C466.838 372.036 467.937 376.137 471.144 377.988Z" stroke="#77A48E" stroke-width="2" stroke-miterlimit="10"/>
<path d="M415.98 346.139L450.82 366.254C454.027 368.106 458.128 367.007 459.979 363.8L480.094 328.96C481.946 325.753 480.847 321.652 477.64 319.8L442.8 299.685C439.593 297.834 435.492 298.933 433.641 302.139L413.525 336.98C411.674 340.187 412.773 344.288 415.98 346.139Z" stroke="#77A48E" stroke-width="2" stroke-miterlimit="10"/>
<path d="M360.816 314.29L395.656 334.405C398.863 336.257 402.964 335.158 404.815 331.951L424.931 297.111C426.782 293.904 425.683 289.803 422.476 287.951L387.636 267.836C384.429 265.985 380.328 267.084 378.477 270.29L358.362 305.131C356.51 308.338 357.609 312.439 360.816 314.29Z" stroke="#77A48E" stroke-width="2" stroke-miterlimit="10"/>
<path d="M305.652 282.441L340.492 302.556C343.699 304.408 347.8 303.309 349.652 300.102L369.767 265.262C371.618 262.055 370.519 257.954 367.312 256.102L332.472 235.987C329.265 234.136 325.164 235.235 323.313 238.441L303.198 273.282C301.346 276.489 302.445 280.59 305.652 282.441Z" stroke="#77A48E" stroke-width="2" stroke-miterlimit="10"/>
<path d="M250.488 250.592L285.328 270.707C288.535 272.559 292.636 271.46 294.487 268.253L314.602 233.413C316.454 230.206 315.355 226.105 312.148 224.254L277.308 204.138C274.101 202.287 270 203.386 268.149 206.593L248.034 241.433C246.182 244.64 247.281 248.741 250.488 250.592Z" stroke="#77A48E" stroke-width="2" stroke-miterlimit="10"/>
<path d="M195.324 218.743L230.164 238.858C233.371 240.71 237.472 239.611 239.324 236.404L259.439 201.564C261.29 198.357 260.191 194.256 256.984 192.404L222.144 172.289C218.937 170.438 214.836 171.537 212.985 174.743L192.87 209.584C191.018 212.791 192.117 216.892 195.324 218.743Z" stroke="#77A48E" stroke-width="2" stroke-miterlimit="10"/>
<path d="M784.182 630.337L861.121 674.758C864.328 676.609 868.429 675.51 870.28 672.303L890.395 637.463C892.247 634.256 891.148 630.155 887.941 628.304L811.002 583.883C807.795 582.031 803.694 583.13 801.843 586.337L781.728 621.177C779.876 624.384 780.975 628.485 784.182 630.337Z" stroke="#77A48E" stroke-width="2" stroke-miterlimit="10"/>
<path d="M81.5674 224.682L158.507 269.103C161.713 270.954 165.814 269.855 167.666 266.649L187.781 231.808C189.632 228.601 188.533 224.5 185.327 222.649L108.388 178.228C105.181 176.377 101.08 177.475 99.2283 180.682L79.1132 215.523C77.2617 218.729 78.3606 222.83 81.5674 224.682Z" stroke="#77A48E" stroke-width="2" stroke-miterlimit="10"/>
<path d="M729.018 598.488L763.858 618.603C767.065 620.454 771.166 619.355 773.017 616.149L793.133 581.308C794.984 578.102 793.885 574 790.678 572.149L755.838 552.034C752.631 550.182 748.53 551.281 746.679 554.488L726.564 589.329C724.712 592.535 725.811 596.636 729.018 598.488Z" stroke="#77A48E" stroke-width="2" stroke-miterlimit="10"/>
<path d="M673.854 566.639L708.694 586.754C711.901 588.605 716.002 587.507 717.853 584.3L737.969 549.459C739.82 546.253 738.721 542.152 735.514 540.3L700.674 520.185C697.467 518.334 693.366 519.432 691.515 522.639L671.4 557.48C669.548 560.686 670.647 564.787 673.854 566.639Z" stroke="#77A48E" stroke-width="2" stroke-miterlimit="10"/>
<path d="M618.69 534.79L653.53 554.905C656.737 556.756 660.838 555.657 662.69 552.451L682.805 517.61C684.656 514.404 683.557 510.302 680.35 508.451L645.51 488.336C642.303 486.484 638.202 487.583 636.351 490.79L616.236 525.631C614.384 528.837 615.483 532.938 618.69 534.79Z" stroke="#77A48E" stroke-width="2" stroke-miterlimit="10"/>
<path d="M563.526 502.941L598.366 523.056C601.573 524.907 605.674 523.809 607.526 520.602L627.641 485.761C629.492 482.555 628.393 478.454 625.186 476.602L590.346 456.487C587.139 454.636 583.038 455.734 581.187 458.941L561.072 493.782C559.22 496.988 560.318 501.089 563.526 502.941Z" stroke="#77A48E" stroke-width="2" stroke-miterlimit="10"/>
<path d="M508.362 471.092L543.202 491.207C546.409 493.059 550.51 491.96 552.362 488.753L572.477 453.913C574.328 450.706 573.229 446.605 570.022 444.753L535.182 424.638C531.975 422.787 527.874 423.886 526.023 427.092L505.908 461.933C504.056 465.14 505.155 469.241 508.362 471.092Z" stroke="#77A48E" stroke-width="2" stroke-miterlimit="10"/>
<path d="M453.198 439.243L488.038 459.358C491.245 461.21 495.346 460.111 497.198 456.904L517.313 422.064C519.164 418.857 518.065 414.756 514.859 412.904L480.018 392.789C476.811 390.938 472.71 392.037 470.859 395.243L450.744 430.084C448.892 433.291 449.991 437.392 453.198 439.243Z" stroke="#77A48E" stroke-width="2" stroke-miterlimit="10"/>
<path d="M398.034 407.394L432.874 427.509C436.081 429.361 440.182 428.262 442.034 425.055L462.149 390.215C464 387.008 462.901 382.907 459.695 381.056L424.854 360.94C421.647 359.089 417.546 360.188 415.695 363.395L395.58 398.235C393.728 401.442 394.827 405.543 398.034 407.394Z" stroke="#77A48E" stroke-width="2" stroke-miterlimit="10"/>
<path d="M342.87 375.545L377.711 395.66C380.917 397.512 385.019 396.413 386.87 393.206L406.985 358.366C408.836 355.159 407.738 351.058 404.531 349.206L369.69 329.091C366.484 327.24 362.383 328.339 360.531 331.546L340.416 366.386C338.565 369.593 339.664 373.694 342.87 375.545Z" stroke="#77A48E" stroke-width="2" stroke-miterlimit="10"/>
<path d="M287.706 343.697L322.547 363.812C325.753 365.663 329.854 364.564 331.706 361.358L351.821 326.517C353.672 323.31 352.573 319.209 349.367 317.358L314.526 297.243C311.32 295.391 307.218 296.49 305.367 299.697L285.252 334.537C283.401 337.744 284.499 341.845 287.706 343.697Z" stroke="#77A48E" stroke-width="2" stroke-miterlimit="10"/>
<path d="M232.542 311.848L267.383 331.963C270.589 333.814 274.69 332.716 276.542 329.509L296.657 294.668C298.508 291.462 297.409 287.361 294.203 285.509L259.362 265.394C256.156 263.543 252.054 264.641 250.203 267.848L230.088 302.689C228.237 305.895 229.335 309.996 232.542 311.848Z" stroke="#77A48E" stroke-width="2" stroke-miterlimit="10"/>
<path d="M177.378 279.999L212.219 300.114C215.426 301.965 219.527 300.866 221.378 297.659L241.493 262.819C243.345 259.612 242.246 255.511 239.039 253.66L204.199 233.545C200.992 231.693 196.891 232.792 195.039 235.999L174.924 270.839C173.073 274.046 174.172 278.147 177.378 279.999Z" stroke="#77A48E" stroke-width="2" stroke-miterlimit="10"/>
<path d="M727.041 668.963L830.11 728.47C833.317 730.321 837.418 729.222 839.269 726.016L859.385 691.175C861.236 687.968 860.137 683.867 856.93 682.016L753.861 622.509C750.654 620.657 746.553 621.756 744.702 624.963L724.586 659.803C722.735 663.01 723.834 667.111 727.041 668.963Z" stroke="#77A48E" stroke-width="2" stroke-miterlimit="10"/>
<path d="M671.877 637.114L706.717 657.229C709.924 659.08 714.025 657.981 715.876 654.775L735.991 619.934C737.843 616.727 736.744 612.626 733.537 610.775L698.697 590.66C695.49 588.808 691.389 589.907 689.538 593.114L669.423 627.954C667.571 631.161 668.67 635.262 671.877 637.114Z" stroke="#77A48E" stroke-width="2" stroke-miterlimit="10"/>
<path d="M616.713 605.265L651.553 625.38C654.76 627.231 658.861 626.133 660.712 622.926L680.827 588.085C682.679 584.879 681.58 580.778 678.373 578.926L643.533 558.811C640.326 556.96 636.225 558.058 634.374 561.265L614.259 596.106C612.407 599.312 613.506 603.413 616.713 605.265Z" stroke="#77A48E" stroke-width="2" stroke-miterlimit="10"/>
<path d="M561.549 573.416L596.389 593.531C599.596 595.382 603.697 594.283 605.548 591.077L625.664 556.236C627.515 553.029 626.416 548.928 623.209 547.077L588.369 526.962C585.162 525.11 581.061 526.209 579.21 529.416L559.095 564.256C557.243 567.463 558.341 571.563 561.549 573.416Z" stroke="#77A48E" stroke-width="2" stroke-miterlimit="10"/>
<path d="M506.385 541.567L541.225 561.682C544.432 563.533 548.533 562.435 550.384 559.228L570.5 524.387C572.351 521.181 571.252 517.08 568.045 515.228L533.205 495.113C529.998 493.262 525.897 494.36 524.046 497.567L503.931 532.408C502.079 535.614 503.177 539.715 506.385 541.567Z" stroke="#77A48E" stroke-width="2" stroke-miterlimit="10"/>
<path d="M451.221 509.718L486.061 529.833C489.268 531.685 493.369 530.586 495.221 527.379L515.336 492.538C517.187 489.332 516.088 485.231 512.881 483.379L478.041 463.264C474.834 461.413 470.733 462.512 468.882 465.718L448.767 500.559C446.915 503.766 448.014 507.867 451.221 509.718Z" stroke="#77A48E" stroke-width="2" stroke-miterlimit="10"/>
<path d="M396.057 477.869L430.897 497.984C434.104 499.836 438.205 498.737 440.057 495.53L460.172 460.69C462.023 457.483 460.924 453.382 457.717 451.53L422.877 431.415C419.67 429.564 415.569 430.663 413.718 433.869L393.603 468.71C391.751 471.917 392.85 476.018 396.057 477.869Z" stroke="#77A48E" stroke-width="2" stroke-miterlimit="10"/>
<path d="M340.893 446.02L375.733 466.135C378.94 467.987 383.041 466.888 384.893 463.681L405.008 428.841C406.859 425.634 405.76 421.533 402.554 419.681L367.713 399.566C364.506 397.715 360.405 398.814 358.554 402.021L338.439 436.861C336.587 440.068 337.686 444.169 340.893 446.02Z" stroke="#77A48E" stroke-width="2" stroke-miterlimit="10"/>
<path d="M285.729 414.171L320.569 434.286C323.776 436.138 327.877 435.039 329.729 431.832L349.844 396.992C351.695 393.785 350.596 389.684 347.39 387.832L312.549 367.717C309.342 365.866 305.241 366.965 303.39 370.171L283.275 405.012C281.423 408.219 282.522 412.32 285.729 414.171Z" stroke="#77A48E" stroke-width="2" stroke-miterlimit="10"/>
<path d="M230.565 382.322L265.405 402.437C268.612 404.289 272.713 403.19 274.565 399.983L294.68 365.143C296.531 361.936 295.432 357.835 292.226 355.983L257.385 335.868C254.178 334.017 250.077 335.116 248.226 338.323L228.111 373.163C226.259 376.37 227.358 380.471 230.565 382.322Z" stroke="#77A48E" stroke-width="2" stroke-miterlimit="10"/>
<path d="M175.401 350.474L210.241 370.589C213.448 372.44 217.549 371.342 219.401 368.135L239.516 333.294C241.367 330.088 240.268 325.987 237.062 324.135L202.221 304.02C199.014 302.169 194.913 303.267 193.062 306.474L172.947 341.315C171.095 344.521 172.194 348.622 175.401 350.474Z" stroke="#77A48E" stroke-width="2" stroke-miterlimit="10"/>
<path d="M50.5565 278.394L155.078 338.74C158.284 340.591 162.385 339.492 164.237 336.285L184.352 301.445C186.203 298.238 185.105 294.137 181.898 292.286L77.3766 231.94C74.1698 230.089 70.0688 231.188 68.2174 234.395L48.1023 269.235C46.2508 272.442 47.3497 276.543 50.5565 278.394Z" stroke="#77A48E" stroke-width="2" stroke-miterlimit="10"/>
<path d="M112.578 170.97L176.452 207.848C179.659 209.699 183.76 208.6 185.611 205.393L205.726 170.553C207.578 167.346 206.479 163.245 203.272 161.394L139.398 124.516C136.191 122.665 132.09 123.764 130.239 126.97L110.124 161.811C108.272 165.017 109.371 169.119 112.578 170.97Z" stroke="#77A48E" stroke-width="2" stroke-miterlimit="10"/>
<path d="M954.153 513.621L919.313 493.506C916.106 491.654 915.007 487.553 916.859 484.346L936.974 449.506C938.825 446.299 942.926 445.2 946.133 447.052L969.36 460.462C978.98 466.016 982.277 478.319 976.723 487.94L963.312 511.166C961.461 514.373 957.36 515.472 954.153 513.621Z" stroke="#77A48E" stroke-width="2" stroke-miterlimit="10"/>
<path d="M211.858 381.199L261.215 409.696C264.422 411.547 265.52 415.648 263.669 418.855L243.554 453.695C241.703 456.902 237.601 458.001 234.395 456.15L185.037 427.653C181.831 425.802 180.732 421.701 182.583 418.494L202.698 383.654C204.55 380.447 208.651 379.348 211.858 381.199Z" stroke="#77A48E" stroke-width="2" stroke-miterlimit="10"/>
<path d="M281.538 421.43L537.035 568.94C540.241 570.792 541.34 574.893 539.489 578.1L519.374 612.94C517.522 616.147 513.421 617.246 510.215 615.394L254.718 467.884C251.512 466.032 250.413 461.931 252.264 458.724L272.379 423.884C274.231 420.677 278.332 419.578 281.538 421.43Z" stroke="#77A48E" stroke-width="2" stroke-miterlimit="10"/>
<path d="M156.694 349.35L191.534 369.465C194.741 371.317 195.84 375.418 193.988 378.625L173.873 413.465C172.022 416.672 167.921 417.771 164.714 415.919L129.874 395.804C126.667 393.953 125.568 389.852 127.419 386.645L147.535 351.805C149.386 348.598 153.487 347.499 156.694 349.35Z" stroke="#77A48E" stroke-width="2" stroke-miterlimit="10"/>
<path d="M101.53 317.501L136.37 337.617C139.577 339.468 140.676 343.569 138.824 346.776L118.709 381.616C116.858 384.823 112.757 385.922 109.55 384.07L74.7096 363.955C71.5029 362.104 70.404 358.003 72.2554 354.796L92.3705 319.956C94.222 316.749 98.323 315.65 101.53 317.501Z" stroke="#77A48E" stroke-width="2" stroke-miterlimit="10"/>
<path d="M606.715 609.171L557.358 580.674C554.151 578.823 550.05 579.922 548.199 583.129L528.084 617.969C526.232 621.176 527.331 625.277 530.538 627.128L579.895 655.625C583.102 657.476 587.203 656.377 589.055 653.17L609.17 618.33C611.021 615.123 609.922 611.022 606.715 609.171Z" stroke="#77A48E" stroke-width="2" stroke-miterlimit="10"/>
<path d="M661.879 641.02L627.039 620.905C623.832 619.053 619.731 620.152 617.88 623.359L597.765 658.199C595.913 661.406 597.012 665.507 600.219 667.358L635.059 687.473C638.266 689.325 642.367 688.226 644.218 685.019L664.333 650.179C666.185 646.972 665.086 642.871 661.879 641.02Z" stroke="#77A48E" stroke-width="2" stroke-miterlimit="10"/>
<path d="M717.043 672.869L682.203 652.753C678.996 650.902 674.895 652.001 673.044 655.208L652.928 690.048C651.077 693.255 652.176 697.356 655.383 699.207L690.223 719.322C693.43 721.174 697.531 720.075 699.382 716.868L719.497 682.028C721.349 678.821 720.25 674.72 717.043 672.869Z" stroke="#77A48E" stroke-width="2" stroke-miterlimit="10"/>
<path d="M772.207 704.717L737.367 684.602C734.16 682.751 730.059 683.85 728.208 687.056L708.092 721.897C706.241 725.104 707.34 729.205 710.547 731.056L745.387 751.171C748.594 753.023 752.695 751.924 754.546 748.717L774.661 713.877C776.513 710.67 775.414 706.569 772.207 704.717Z" stroke="#77A48E" stroke-width="2" stroke-miterlimit="10"/>
<path d="M825.919 735.728L791.079 715.613C787.872 713.762 783.771 714.861 781.92 718.067L761.805 752.908C759.953 756.115 761.052 760.216 764.259 762.067L787.486 775.477C797.106 781.031 809.409 777.735 814.964 768.115L828.374 744.888C830.225 741.681 829.126 737.58 825.919 735.728Z" stroke="#77A48E" stroke-width="2" stroke-miterlimit="10"/>
<path d="M46.3657 285.653L81.2061 305.768C84.4129 307.619 85.5117 311.72 83.6603 314.927L63.5452 349.767C61.6938 352.974 57.5927 354.073 54.386 352.222L31.159 338.811C21.5387 333.257 18.2421 320.954 23.7964 311.334L37.2065 288.107C39.0579 284.9 43.159 283.801 46.3657 285.653Z" stroke="#77A48E" stroke-width="2" stroke-miterlimit="10"/>
<path d="M718.15 704.477L764.604 731.297" stroke="#77A48E" stroke-width="2" stroke-miterlimit="10"/>
</svg>
